<svg width="1920" height="898" viewBox="0 0 1920 898" fill="none" xmlns="http://www.w3.org/2000/svg">
<mask id="mask0_2406_19900" style="mask-type:alpha" maskUnits="userSpaceOnUse" x="0" y="0" width="1920" height="898">
<rect width="1920" height="898" fill="white"/>
</mask>
<g mask="url(#mask0_2406_19900)">
<g opacity="0.1">
<mask id="mask1_2406_19900" style="mask-type:luminance" maskUnits="userSpaceOnUse" x="-340" y="-145" width="2334" height="1526">
<path d="M1993.12 -145L-340 -145L-340 1380.42H1993.12V-145Z" fill="white"/>
</mask>
<g mask="url(#mask1_2406_19900)">
<path d="M-451.211 730.209C-363.913 677.2 -246.674 695.124 -159.182 747.942C-71.6896 800.759 -7.52874 882.941 54.6879 963.026C115.155 1041.01 191.176 1126.63 291.111 1123.77C384.436 1120.91 456.374 1037.58 486.704 951.013C517.035 864.445 518.59 770.442 543.088 682.158C567.586 593.684 625.331 504.066 716.323 483.282C797.593 464.786 879.252 505.972 961.689 519.129C1145.81 548.684 1321.77 437.328 1462.14 316.63C1602.52 195.931 1738.23 55.7833 1918.27 7.54199" stroke="#FF9E73" stroke-width="1.6" stroke-miterlimit="10"/>
<path d="M-458.02 719.912C-372.083 666.332 -257.177 680.823 -169.879 729.446C-82.5811 778.069 -17.0593 855.293 46.5183 931.755C97.847 993.725 159.48 1061.61 235.307 1082.58C250.472 1086.78 266.221 1089.06 282.553 1089.06C374.322 1089.06 445.093 1013.17 478.729 932.136C512.56 850.526 519.559 758.048 546.39 670.145C549.306 660.421 552.806 650.696 556.5 640.972C586.247 563.366 641.076 489.955 721.957 470.316C742.956 465.167 764.148 464.023 785.341 465.358C846.196 469.362 907.246 494.341 968.491 504.828C1033.82 516.078 1098.17 510.739 1160.39 492.625C1256.83 464.595 1347.23 405.867 1427.14 340.464C1441.92 328.452 1456.31 316.248 1470.31 303.854C1532.72 248.939 1594.16 190.211 1660.07 138.537C1741.73 74.4696 1830.97 22.0333 1929.15 1.63086" stroke="#F99A78" stroke-width="1.6" stroke-miterlimit="10"/>
<path d="M-464.629 709.616C-380.248 655.654 -267.286 666.523 -180.182 710.76C-93.0791 754.997 -26.0018 827.454 38.7423 900.293C91.2376 959.403 153.26 1024.61 227.92 1046.92C242.891 1051.31 258.445 1053.98 274.388 1054.55C364.602 1057.41 434.401 988.958 471.342 913.259C508.672 836.797 520.921 745.654 550.279 658.133C553.585 648.408 557.084 638.684 560.973 629.15C592.276 551.926 647.493 478.324 728.18 457.54C749.178 452.201 770.371 450.676 791.758 451.629C853.002 454.68 914.441 479.468 976.074 490.718C1041.6 502.731 1106.15 499.299 1168.95 482.138C1266.55 455.443 1357.15 395.379 1436.67 328.642C1451.25 316.439 1465.64 303.854 1479.45 291.27C1541.47 235.211 1602.71 175.529 1669.21 124.046C1751.64 60.1689 1844 10.2114 1940.82 -4.08936" stroke="#F3967C" stroke-width="1.6" stroke-miterlimit="10"/>
<path d="M-471.434 699.319C-388.413 644.785 -277.784 652.412 -190.876 692.264C-103.967 732.115 -35.5285 799.615 30.7711 869.021C84.4329 925.08 146.65 988.004 220.532 1011.27C235.308 1015.84 250.474 1018.89 266.222 1019.85C354.881 1025.57 423.513 964.551 463.76 894.381C504.589 822.877 522.282 733.259 553.974 646.12C557.474 636.395 561.362 626.861 565.445 617.137C598.303 540.294 653.715 466.311 734.208 444.574C755.206 438.853 776.398 436.947 797.98 437.709C859.807 439.807 921.441 464.404 983.268 476.417C1048.79 489.192 1113.73 487.667 1176.92 471.269C1275.49 445.909 1366.29 384.51 1445.42 316.629C1460 304.235 1474.2 291.46 1488 278.685C1549.83 221.672 1610.68 161.037 1677.96 109.554C1761.17 45.8677 1856.83 -1.61094 1952.29 -9.81006" stroke="#EC9281" stroke-width="1.6" stroke-miterlimit="10"/>
<path d="M-478.043 689.213C-396.578 634.107 -288.088 638.302 -201.374 673.959C-114.659 709.616 -44.6654 772.158 22.8007 837.941C77.6291 891.14 140.235 951.585 212.95 975.801C227.532 980.568 242.503 984 257.863 985.335C344.772 993.725 412.627 940.144 455.984 875.695C500.508 809.149 523.255 721.056 557.475 634.489C561.169 624.955 565.252 615.23 569.529 605.696C603.943 529.235 659.549 455.061 740.042 431.989C761.04 425.888 782.232 423.6 804.008 424.172C866.225 425.316 928.247 449.722 990.463 462.688C1056.18 476.227 1121.31 476.608 1185.08 460.972C1284.63 436.947 1375.82 374.024 1454.37 304.998C1468.75 292.223 1482.95 279.257 1496.75 266.291C1558.19 208.134 1618.66 146.546 1686.71 95.2534C1770.7 31.7579 1869.47 -13.4326 1963.57 -15.3394" stroke="#E68E85" stroke-width="1.6" stroke-miterlimit="10"/>
<path d="M-484.656 678.916C-404.552 623.429 -298.201 624.001 -211.681 655.463C-125.161 686.734 -53.8063 744.509 15.2152 806.67C71.0157 857.009 134.01 914.784 205.948 940.335C220.141 945.292 234.918 948.915 250.083 951.012C335.436 962.072 402.514 915.928 448.787 857.199C497.199 795.61 525.003 709.043 561.555 622.857C565.638 613.323 569.915 603.789 574.387 594.255C610.356 518.175 666.351 443.811 746.455 419.595C767.453 413.303 788.84 410.633 810.616 410.633C873.221 411.015 935.438 435.04 998.043 448.769C1063.95 463.069 1129.28 465.358 1193.64 450.675C1294.35 427.985 1385.73 363.727 1463.7 293.367C1478.08 280.401 1492.08 267.244 1505.89 253.896C1567.13 194.787 1627.21 132.244 1696.04 80.9522C1780.81 17.4567 1882.88 -25.0643 1975.43 -20.8694" stroke="#E08B8A" stroke-width="1.6" stroke-miterlimit="10"/>
<path d="M-491.461 668.62C-412.912 612.561 -308.7 609.891 -222.374 636.777C-136.049 663.853 -63.1384 716.671 7.04967 775.209C64.0167 822.496 127.4 877.984 198.171 904.488C212.17 909.636 226.558 913.64 241.528 916.119C325.326 930.038 391.82 891.14 440.816 837.941C493.117 781.31 525.781 696.268 564.86 610.463C569.138 600.93 573.61 591.396 578.276 582.052C615.8 506.354 671.99 431.608 752.093 406.248C773.092 399.574 794.479 396.524 816.449 396.333C879.638 395.761 942.049 419.595 1005.04 434.087C1071.15 449.15 1136.67 453.155 1201.41 439.426C1303.1 418.07 1394.67 352.477 1472.45 280.782C1486.64 267.626 1500.64 254.278 1514.25 240.74C1575.1 180.486 1634.99 116.991 1704.4 65.6985C1789.94 2.39362 1895.13 -37.8393 1986.32 -27.352" stroke="#DA878E" stroke-width="1.6" stroke-miterlimit="10"/>
<path d="M-498.07 658.323C-420.883 601.692 -319.003 595.59 -232.872 618.281C-146.741 640.972 -72.4699 689.022 -0.92078 743.937C57.2129 788.365 120.79 841.373 190.784 868.831C204.588 874.17 218.782 878.555 233.364 881.416C315.606 898.195 381.517 866.733 433.234 819.064C489.618 767.391 527.143 683.874 568.556 598.641C573.222 589.298 577.888 579.764 582.749 570.421C621.829 495.103 678.212 420.167 758.316 393.663C779.314 386.799 800.701 383.367 822.866 382.795C886.444 381.269 949.243 404.913 1012.63 420.167C1078.93 435.993 1144.64 441.904 1209.97 429.129C1312.63 409.108 1404.59 342.18 1481.78 269.342C1495.97 255.994 1509.78 242.265 1523.39 228.537C1584.05 167.329 1643.54 102.88 1713.73 51.5881C1800.25 -11.526 1908.55 -49.2801 1998.37 -32.6912" stroke="#D48393" stroke-width="1.6" stroke-miterlimit="10"/>
<path d="M-504.875 648.027C-429.049 591.014 -329.308 581.289 -243.371 599.785C-157.434 618.281 -81.6077 661.374 -8.69757 712.666C50.4082 754.043 114.569 804.763 183.591 833.365C197.201 839.085 211.005 843.661 225.198 847.094C305.885 866.733 371.213 842.708 425.652 800.568C486.119 753.852 528.31 671.67 572.056 587.01C576.916 577.667 581.777 568.323 586.832 558.98C627.467 484.235 684.046 408.727 763.955 381.269C784.953 374.023 806.34 370.21 828.699 369.447C892.666 366.968 955.854 390.612 1019.43 406.438C1085.93 423.027 1151.84 430.845 1217.55 418.832C1321.18 400.146 1413.34 331.884 1490.14 257.71C1504.14 244.172 1517.94 230.253 1531.55 216.333C1591.82 153.982 1651.12 88.5794 1721.9 37.4779C1809.19 -25.4456 1920.6 -60.9115 2009.06 -37.8396" stroke="#CE7F97" stroke-width="1.6" stroke-miterlimit="10"/>
<path d="M-511.484 637.73C-437.213 580.145 -339.611 567.179 -253.869 581.29C-168.126 595.4 -90.939 633.726 -16.6679 681.395C43.6044 719.912 107.96 767.962 176.009 797.708C189.425 803.619 203.035 808.577 216.839 812.39C295.971 834.89 361.104 818.301 417.876 781.691C482.62 739.933 529.477 659.276 575.556 574.997C580.612 565.654 585.861 556.311 591.111 546.968C633.107 472.604 690.268 396.905 769.983 368.112C790.981 360.485 812.563 356.29 834.922 355.146C899.277 351.905 962.855 375.167 1026.82 391.947C1093.32 409.299 1159.61 419.023 1225.91 407.773C1330.71 390.422 1423.06 320.824 1499.28 245.316C1513.28 231.587 1526.89 217.287 1540.5 203.177C1600.58 139.681 1659.49 73.516 1731.04 22.4145C1819.11 -40.5089 1933.82 -73.3054 2020.73 -44.1318" stroke="#C87B9C" stroke-width="1.6" stroke-miterlimit="10"/>
<path d="M-518.289 627.434C-445.379 569.277 -350.11 552.879 -264.562 562.604C-179.014 572.328 -100.271 605.887 -24.6392 649.934C36.7997 685.59 101.544 731.162 168.621 762.052C181.842 768.154 195.063 773.302 208.673 777.878C286.249 803.238 350.994 794.086 410.294 762.815C479.315 726.395 530.644 646.883 579.251 563.176C584.695 553.832 589.944 544.68 595.583 535.337C639.134 461.354 696.49 385.464 776.011 355.528C796.814 347.71 818.59 343.134 841.144 341.609C906.082 337.414 969.855 360.486 1034.02 378.028C1100.7 396.142 1167.2 407.774 1234.08 397.477C1339.85 381.46 1432.4 310.338 1508.42 233.876C1522.42 219.766 1535.83 205.465 1549.25 190.974C1608.94 126.525 1667.65 59.2157 1739.79 8.30485C1828.64 -54.428 1946.46 -84.7456 2032.01 -49.4703" stroke="#C177A0" stroke-width="1.6" stroke-miterlimit="10"/>
<path d="M-524.902 617.137C-453.548 558.599 -360.417 538.578 -274.869 544.107C-189.516 549.637 -109.412 578.239 -32.419 618.662C30.1865 651.268 95.125 694.552 161.23 726.395C174.062 732.687 187.283 738.217 200.504 743.174C276.331 771.204 341.075 770.06 402.708 743.937C476.202 712.857 532.002 634.488 582.942 551.162C588.581 542.01 594.219 532.667 599.857 523.514C644.964 449.913 702.515 373.642 782.035 342.562C802.839 334.362 824.615 329.405 847.363 327.689C912.69 322.541 976.851 345.422 1041.4 363.727C1108.28 382.604 1174.97 396.142 1242.24 386.608C1348.98 371.926 1441.92 299.469 1517.36 221.672C1531.16 207.371 1544.58 192.88 1557.99 178.198C1617.49 112.605 1675.62 44.5331 1748.73 -6.37774C1838.36 -68.9199 1959.29 -96.9494 2043.67 -55.3818" stroke="#BB73A4" stroke-width="1.6" stroke-miterlimit="10"/>
<path d="M-531.512 606.841C-461.518 547.731 -370.526 524.277 -285.367 525.612C-200.208 526.756 -118.549 550.591 -40.3894 587.201C23.1882 616.947 88.7101 657.561 153.843 690.548C166.481 697.031 179.313 702.942 192.34 708.281C266.611 739.171 331.16 745.844 395.127 724.87C473.092 699.319 533.17 621.904 586.637 538.959C592.47 529.807 598.497 520.654 604.33 511.502C650.993 438.282 708.738 361.82 788.258 329.596C809.062 321.206 830.838 315.867 853.78 313.77C919.496 307.668 984.046 330.359 1048.79 349.426C1115.87 369.066 1182.75 384.511 1250.61 375.93C1358.51 362.583 1451.64 288.791 1526.5 209.66C1540.3 195.168 1553.72 180.296 1566.94 165.423C1626.04 98.8765 1683.98 29.6606 1757.67 -21.0595C1848.08 -83.4109 1972.32 -108.962 2055.14 -61.2924" stroke="#B56FA9" stroke-width="1.6" stroke-miterlimit="10"/>
<path d="M-538.316 596.734C-469.878 537.052 -381.025 510.358 -295.866 507.116C-210.902 504.065 -127.881 522.942 -48.1662 555.929C16.5779 582.815 82.2942 620.76 146.455 655.082C158.898 661.755 171.536 668.048 184.174 673.959C256.89 707.709 321.245 722.391 387.739 706.183C470.176 686.353 534.726 609.7 590.526 527.328C596.748 518.175 602.775 509.023 608.802 500.061C657.02 427.222 715.154 350.379 794.285 317.202C815.089 308.43 836.865 302.71 860.002 300.422C926.301 293.558 991.045 315.867 1056.18 335.697C1123.45 356.1 1190.53 373.451 1258.77 365.634C1367.65 353.621 1460.98 278.494 1535.44 198.028C1549.05 183.346 1562.47 168.283 1575.49 153.029C1634.21 85.3381 1691.95 15.3595 1766.42 -35.3606C1857.8 -97.7121 1984.96 -120.784 2066.42 -66.8223" stroke="#AF6BAD" stroke-width="1.6" stroke-miterlimit="10"/>
<path d="M-544.926 586.438C-477.849 526.184 -391.329 496.057 -306.364 488.62C-221.594 481.184 -137.018 495.294 -56.1366 524.658C9.77417 548.493 75.8793 584.15 139.068 619.425C151.317 626.289 163.566 632.963 176.009 639.255C247.169 675.865 311.136 698.556 380.157 687.306C466.872 673.196 535.893 597.306 594.221 515.315C600.637 506.353 607.054 497.201 613.275 488.048C663.049 415.782 721.377 338.557 800.508 304.045C821.312 294.892 843.282 288.981 866.419 286.121C933.107 278.303 998.24 300.422 1063.57 321.206C1131.03 342.371 1198.31 361.439 1267.13 354.574C1376.98 343.896 1470.7 267.435 1544.77 185.825C1558.38 170.952 1571.61 155.507 1584.63 140.253C1643.15 71.6091 1700.51 0.486495 1775.56 -50.043C1867.72 -112.204 1998.18 -132.797 2078.28 -72.7336" stroke="#A968B2" stroke-width="1.6" stroke-miterlimit="10"/>
<path d="M-551.73 576.141C-486.209 515.506 -401.633 481.756 -317.057 470.125C-232.482 458.493 -146.35 467.646 -64.1078 493.387C2.77501 514.362 69.4635 547.349 131.486 583.768C143.54 590.823 155.4 597.878 167.455 604.743C236.865 644.404 300.637 675.103 372.186 668.62C463.178 660.42 536.866 585.103 597.527 503.493C604.137 494.531 610.748 485.379 617.164 476.417C668.493 404.532 727.015 327.117 806.147 291.46C826.95 282.117 848.921 275.634 872.252 272.583C939.329 263.812 1004.85 285.93 1070.57 307.286C1138.03 329.214 1205.69 350.189 1274.91 344.278C1385.73 334.934 1479.64 257.138 1553.33 174.194C1566.74 158.939 1579.97 143.495 1592.99 127.859C1651.13 58.0711 1708.29 -13.8142 1783.92 -64.3436C1876.86 -126.314 2010.43 -144.619 2089.17 -78.2631" stroke="#A364B6" stroke-width="1.6" stroke-miterlimit="10"/>
<path d="M-558.344 565.845C-494.183 504.638 -411.94 467.646 -327.365 451.629C-242.983 435.612 -155.491 439.998 -71.8877 462.117C-3.83825 480.231 63.0446 510.739 124.289 548.303C136.149 555.548 147.815 562.985 159.48 570.231C227.335 612.752 290.718 651.65 364.795 649.934C460.064 647.836 538.224 572.9 601.413 491.672C608.412 482.71 615.217 473.748 621.827 464.786C674.712 393.282 733.429 315.486 812.366 278.685C833.17 268.96 855.14 262.096 878.471 258.855C946.132 249.13 1011.85 271.058 1077.76 293.177C1145.42 315.867 1213.27 338.748 1283.07 333.6C1395.06 325.401 1489.17 246.27 1562.27 162.181C1575.69 146.736 1588.71 131.101 1601.74 115.084C1659.68 44.3427 1716.45 -28.6867 1792.86 -79.0255C1886.57 -140.805 2023.45 -156.631 2100.64 -84.1738" stroke="#9C60BB" stroke-width="1.6" stroke-miterlimit="10"/>
<path d="M-565.148 555.548C-502.543 493.769 -422.439 453.345 -338.058 432.943C-253.871 412.54 -164.823 412.159 -80.0533 430.654C-10.8374 445.718 56.4343 473.938 116.512 512.455C127.983 519.891 139.455 527.518 150.926 535.336C217.225 580.717 280.22 627.815 356.824 630.675C456.176 634.488 539.196 559.934 604.718 479.468C611.912 470.506 618.911 461.735 625.716 452.773C679.961 381.65 739.262 303.663 818.005 265.719C838.808 255.803 860.778 248.558 884.304 244.935C952.354 234.448 1018.46 255.994 1084.76 278.875C1152.61 302.329 1220.66 327.117 1291.05 322.922C1404.01 316.057 1498.5 235.592 1571.02 150.168C1584.24 134.533 1597.27 118.516 1610.1 102.499C1667.65 30.6136 1724.03 -43.1785 1801.22 -93.708C1895.71 -155.487 2035.7 -168.644 2111.53 -90.0851" stroke="#965CBF" stroke-width="1.6" stroke-miterlimit="10"/>
<path d="M-571.758 545.251C-399.496 370.21 -95.6063 339.701 109.32 476.989C186.507 528.663 256.306 603.217 349.437 612.179C464.149 623.238 559.807 530.569 630.384 441.332C700.961 352.095 777.176 250.464 890.916 231.397C1029.35 208.134 1159.42 319.299 1299.6 312.435C1413.54 306.905 1508.22 225.104 1580.55 138.537C1652.87 51.9694 1715.48 -46.42 1810.75 -107.818C1906.02 -169.407 2049.31 -180.275 2123.78 -95.4241" stroke="#9058C4" stroke-width="1.6" stroke-miterlimit="10"/>
<path d="M-561.453 582.052C-392.885 403.388 -90.3567 366.206 117.874 497.773C196.229 547.349 267.583 619.807 360.714 626.671C452.872 633.535 531.615 574.044 594.22 503.493C609.58 486.142 623.773 468.218 637.189 450.485C677.435 397.096 719.042 339.511 769.01 296.227C803.813 266.291 842.892 243.219 888.194 233.494C932.718 223.961 976.852 228.537 1021.18 239.024C1111.01 259.808 1201.42 305.189 1295.52 302.329C1395.84 299.278 1481.39 241.694 1551 173.812C1560.52 164.66 1569.66 155.317 1578.41 145.783C1634.4 85.9103 1685.54 19.5546 1748.92 -35.1698C1769.34 -52.7121 1790.92 -69.1103 1814.44 -83.6018C1910.68 -143.093 2051.64 -157.394 2124.75 -82.8391" stroke="#8C5BC7" stroke-width="1.6" stroke-miterlimit="10"/>
<path d="M-550.953 618.662C-386.079 436.375 -84.9119 392.328 126.43 518.557C205.951 566.035 279.055 636.395 372.186 641.162C464.15 645.929 541.92 584.912 602.776 513.408C617.553 495.866 631.551 477.752 644.384 459.637C683.074 405.294 722.738 347.138 770.955 302.519C804.397 271.63 841.921 247.223 886.056 235.782C929.219 224.342 972.381 226.63 1016.52 234.829C1105.95 251.227 1197.72 293.558 1292.02 292.413C1392.15 291.079 1477.89 239.787 1548.66 178.77C1558.19 170.571 1567.52 161.99 1576.66 153.6C1634.02 99.4481 1687.09 38.8127 1752.03 -12.4795C1772.84 -29.0684 1794.81 -44.5132 1818.53 -58.6234C1915.74 -116.017 2054.37 -133.941 2126.31 -69.6826" stroke="#895ECA" stroke-width="1.6" stroke-miterlimit="10"/>
<path d="M-540.648 655.272C-379.469 469.362 -79.4679 418.451 134.985 539.341C215.478 584.722 290.332 652.984 383.463 655.654C475.427 658.514 552.031 595.972 611.137 523.514C625.524 505.781 638.939 487.286 651.383 468.79C688.713 413.684 726.432 354.575 772.511 308.621C804.397 276.778 840.755 251.227 883.334 237.88C925.33 224.533 967.521 224.533 1011.27 230.444C1100.12 242.266 1193.25 281.545 1287.94 282.117C1388.07 282.499 1474 237.689 1545.94 183.346C1555.66 175.91 1565.19 168.474 1574.52 160.846C1633.43 112.414 1688.26 57.4994 1754.56 9.4487C1775.95 -5.99616 1798.31 -20.869 1822.22 -34.2164C1920.41 -89.5128 2056.7 -110.869 2127.28 -57.0976" stroke="#8560CE" stroke-width="1.6" stroke-miterlimit="10"/>
<path d="M-530.152 692.073C-372.861 502.731 -74.0269 444.955 143.731 560.124C225.391 603.599 301.8 669.573 394.931 670.145C486.7 670.908 562.527 607.031 619.494 533.43C633.493 515.315 646.519 496.629 658.379 477.943C694.348 422.074 729.928 362.201 774.258 314.914C804.783 282.117 839.78 255.422 880.998 240.168C921.633 225.105 963.046 222.626 1006.4 226.249C1094.87 233.685 1189.36 269.914 1284.05 272.202C1383.98 274.299 1470.11 235.973 1543.41 188.113C1553.33 181.63 1563.05 174.956 1572.57 168.283C1632.85 125.762 1689.81 76.3763 1757.47 31.5672C1779.25 17.0757 1802 3.15624 1826.11 -9.80981C1925.26 -63.0088 2059.23 -87.9875 2128.64 -44.5131" stroke="#8263D1" stroke-width="1.6" stroke-miterlimit="10"/>
<path d="M-519.844 728.683C-366.247 535.718 -68.7734 471.078 152.29 580.908C235.116 622.285 313.081 686.353 406.212 684.827C497.787 683.493 572.641 618.09 627.858 543.536C641.468 525.231 653.911 506.163 665.383 487.286C699.991 430.464 733.626 370.019 775.817 321.206C804.981 287.647 838.422 259.427 878.28 242.266C917.554 225.295 958.19 220.528 1001.16 221.863C1089.43 224.723 1184.89 258.282 1279.97 262.096C1379.71 266.1 1466.23 233.876 1540.69 192.88C1550.8 187.35 1560.72 181.63 1570.44 175.719C1632.07 138.918 1690.98 95.2534 1760.2 53.6857C1782.37 40.3383 1805.5 27.1816 1830 14.5969C1930.13 -36.5046 2061.76 -64.9155 2130 -31.9283" stroke="#7E66D4" stroke-width="1.6" stroke-miterlimit="10"/>
<path d="M-509.543 765.484C-359.64 568.896 -63.5277 497.392 160.841 601.883C244.639 641.162 324.354 703.132 417.679 699.51C509.254 696.268 582.942 629.34 636.409 553.832C649.436 535.146 661.49 515.887 672.572 496.629C705.819 439.044 737.511 377.837 777.757 327.498C805.366 292.986 837.641 263.621 876.137 244.554C914.245 225.867 953.908 218.431 996.488 217.668C1084.37 215.952 1181.19 246.651 1276.46 251.99C1376.2 257.71 1462.72 231.969 1538.55 197.456C1548.85 192.88 1558.96 187.923 1568.88 183.156C1631.87 152.075 1692.73 114.13 1763.31 75.995C1786.06 63.7916 1809.58 51.2069 1834.08 39.3849C1935.18 -9.61912 2064.47 -41.6529 2131.36 -18.7716" stroke="#7B69D7" stroke-width="1.6" stroke-miterlimit="10"/>
<path d="M-499.043 802.094C-352.834 601.883 -58.0827 523.705 169.591 622.476C254.556 659.658 335.826 719.53 429.151 713.81C520.532 708.471 593.247 640.209 644.77 563.556C657.408 544.679 669.074 525.04 679.573 505.591C711.264 447.243 741.012 385.273 779.314 333.6C805.561 298.134 836.475 267.435 873.417 246.651C910.163 226.058 949.049 216.333 991.434 213.282C1078.93 206.799 1176.92 234.829 1272.57 241.884C1372.12 249.32 1459.03 230.062 1536.02 202.223C1546.52 198.41 1556.83 194.596 1566.94 190.592C1631.29 165.232 1694.09 133.007 1766.22 98.1133C1789.36 86.8634 1813.28 75.2321 1837.97 63.7914C1940.04 16.8848 2067 -18.7718 2132.72 -6.18711" stroke="#776BDA" stroke-width="1.6" stroke-miterlimit="10"/>
<path d="M-488.738 838.704C-346.223 634.87 -52.8333 549.828 178.146 643.26C264.083 678.344 347.103 736.119 440.428 728.302C531.808 720.865 603.358 651.077 653.131 573.662C665.38 554.404 676.462 534.574 686.572 514.743C716.903 455.442 744.706 392.9 781.064 339.701C805.95 303.473 835.309 271.439 871.083 248.748C906.469 226.248 944.577 214.045 986.573 208.897C1073.68 197.838 1173.03 222.816 1268.88 231.587C1368.43 240.74 1455.34 227.774 1533.5 206.799C1544.19 203.939 1554.69 201.079 1564.99 197.838C1630.71 178.198 1695.45 151.694 1768.95 120.041C1792.47 109.935 1816.78 99.0667 1841.86 88.1981C1944.9 43.389 2069.53 4.30015 2133.89 6.3976" stroke="#746EDD" stroke-width="1.6" stroke-miterlimit="10"/>
<path d="M-478.238 875.505C-339.417 668.048 -47.3883 576.141 186.702 664.043C273.805 697.031 358.575 752.708 451.9 742.793C543.086 733.259 613.858 662.137 661.687 583.578C673.547 564.129 684.046 544.108 693.767 523.896C722.737 463.832 748.595 400.528 782.815 345.994C806.146 308.812 834.338 275.443 868.751 251.037C902.97 226.63 940.106 212.138 981.713 204.702C1068.43 189.067 1168.95 211.185 1265.19 221.672C1364.54 232.541 1451.64 226.058 1531.16 211.566C1542.05 209.66 1552.75 207.562 1563.24 205.465C1630.52 191.545 1697.01 170.761 1772.06 142.541C1796.17 133.389 1820.67 123.474 1845.94 112.986C1949.76 70.0839 2072.25 27.5629 2135.44 19.3638" stroke="#7171E1" stroke-width="1.6" stroke-miterlimit="10"/>
<path d="M-467.934 912.115C-333.001 701.035 -42.1386 602.455 195.257 684.828C283.526 715.717 369.852 769.298 463.177 757.285C554.363 745.844 623.968 673.196 670.047 593.493C681.518 573.663 691.629 553.451 700.767 533.048C728.375 472.222 752.095 408.155 784.565 352.096C806.535 314.151 833.366 279.448 866.224 253.134C899.082 227.012 935.245 209.851 976.658 200.126C1062.98 179.914 1164.86 199.173 1261.1 211.376C1360.26 223.961 1447.75 223.961 1528.44 216.143C1539.52 215.19 1550.41 214.045 1561.11 212.711C1629.74 204.512 1698.37 189.448 1774.78 164.469C1799.28 156.461 1824.36 147.118 1849.83 137.203C1954.63 96.3976 2074.78 50.4444 2136.61 31.9487" stroke="#6D74E4" stroke-width="1.6" stroke-miterlimit="10"/>
<path d="M-457.629 948.915C-326.196 734.213 -36.6947 628.768 203.811 705.611C293.053 734.403 381.129 786.077 474.454 771.967C565.445 758.429 634.078 684.255 678.213 603.789C689.101 583.768 698.822 563.175 707.572 542.392C733.819 480.612 755.595 415.972 786.12 358.579C806.729 319.68 832.005 283.642 863.696 255.613C895.193 227.583 930.579 208.134 971.603 196.122C1057.54 171.143 1160.59 187.541 1257.22 201.461C1356.37 215.761 1443.87 222.054 1525.91 221.1C1537 220.91 1548.27 220.719 1559.16 220.338C1629.16 217.859 1699.73 208.516 1777.5 186.778C1802.39 179.723 1827.86 171.334 1853.52 161.99C1959.29 123.283 2077.11 73.7068 2137.78 44.9146" stroke="#6A77E7" stroke-width="1.6" stroke-miterlimit="10"/>
<path d="M-447.129 985.525C-319.585 767.2 -31.2498 654.891 212.562 726.395C302.97 753.09 392.601 802.666 485.926 786.458C576.918 770.823 644.384 695.314 686.769 613.705C697.268 593.302 706.406 572.518 714.766 551.544C739.458 489.002 759.484 423.599 787.871 364.68C807.119 324.829 831.034 287.456 861.17 257.519C891.5 227.583 925.914 205.655 966.549 191.545C1052.1 161.799 1156.5 175.528 1253.33 191.164C1352.29 207.181 1440.17 219.956 1523.39 225.486C1534.66 226.248 1546.14 227.011 1557.41 227.392C1628.77 230.634 1701.29 227.011 1780.61 208.515C1806.08 202.604 1831.75 194.977 1857.8 186.015C1964.54 149.405 2080.03 96.3972 2139.53 57.1177" stroke="#6679EA" stroke-width="1.6" stroke-miterlimit="10"/>
<path d="M-436.824 1022.14C-312.974 800.378 -26.0002 681.205 221.116 747.179C312.691 771.776 403.878 819.255 497.397 800.95C588.194 783.408 654.688 706.374 695.323 623.811C705.434 603.218 714.183 582.052 721.96 560.887C745.291 497.582 763.373 431.417 789.815 370.973C807.702 330.358 830.061 291.651 859.031 259.808C888.001 227.965 921.636 203.749 961.883 187.35C1047.04 153.029 1152.62 163.897 1249.83 181.058C1348.79 198.6 1436.67 217.859 1521.25 230.253C1532.72 231.969 1544.19 233.494 1555.86 235.02C1628.57 243.982 1703.04 246.079 1783.73 231.016C1809.58 226.058 1835.64 219.194 1861.88 210.804C1969.6 176.291 2082.75 119.66 2140.89 70.084" stroke="#637CED" stroke-width="1.6" stroke-miterlimit="10"/>
<path d="M-426.328 1058.94C-306.367 833.365 -20.7537 707.518 229.668 767.962C322.215 790.462 415.152 835.844 508.671 815.441C599.468 795.801 664.99 717.433 703.681 633.726C713.402 612.751 721.568 591.395 728.957 569.849C750.927 505.591 767.064 438.854 791.368 377.074C807.699 335.506 828.698 295.464 856.501 261.905C884.109 228.155 916.967 201.46 956.825 182.965C1041.6 143.876 1148.53 151.694 1245.94 170.952C1344.71 190.02 1432.98 215.952 1518.52 235.02C1530.19 237.689 1541.86 240.168 1553.72 242.456C1627.79 257.138 1704.2 264.956 1786.44 253.134C1812.69 249.32 1839.33 243.219 1865.77 235.401C1974.46 202.986 2085.28 142.922 2142.25 83.0498" stroke="#5F7FF0" stroke-width="1.6" stroke-miterlimit="10"/>
<path d="M-416.023 1095.55C-299.562 866.352 -15.3096 733.641 238.223 788.747C331.937 809.149 426.428 852.433 519.948 829.933C610.551 808.196 675.1 728.302 711.847 643.641C720.985 622.476 728.762 600.739 735.762 579.002C756.371 513.981 770.564 446.481 792.923 383.176C807.894 340.846 827.531 299.278 853.779 264.003C880.026 228.346 912.107 199.173 951.575 178.58C1035.96 134.724 1144.25 139.872 1241.85 160.847C1340.62 181.63 1428.89 214.046 1515.8 239.596C1527.66 243.029 1539.52 246.461 1551.58 249.702C1627.01 270.295 1705.37 283.643 1789.17 275.062C1816 272.202 1842.83 267.054 1869.46 259.617C1979.12 229.3 2087.61 165.614 2143.22 95.4443" stroke="#5C82F3" stroke-width="1.6" stroke-miterlimit="10"/>
<path d="M-405.719 1132.35C-292.951 899.53 -10.06 759.955 246.972 809.721C341.853 828.217 438.094 869.403 531.613 844.806C622.216 821.162 685.599 739.743 720.596 654.129C729.346 632.582 736.734 610.654 743.15 588.536C762.398 522.752 774.647 454.49 794.867 389.85C808.477 346.566 826.753 303.855 851.64 266.673C876.527 229.3 907.635 197.647 946.909 174.766C1030.9 126.143 1140.36 128.622 1238.36 151.122C1336.93 173.622 1425.59 212.33 1513.66 244.745C1525.72 249.13 1537.77 253.516 1550.02 257.711C1627.01 284.024 1707.31 303.092 1792.28 297.944C1819.5 296.227 1846.72 291.842 1873.55 284.978C1984.18 256.757 2090.33 189.639 2144.77 108.982" stroke="#5884F7" stroke-width="1.6" stroke-miterlimit="10"/>
<path d="M-395.219 1168.96C-286.34 932.517 -4.61513 786.267 255.528 830.505C351.381 846.903 449.372 885.992 542.891 859.297C633.299 833.556 695.711 750.802 728.958 664.043C737.318 642.306 744.123 620.188 750.15 597.688C767.843 531.141 778.342 462.116 796.618 395.951C808.867 351.905 825.588 307.668 849.113 268.77C872.833 229.49 902.97 195.359 942.049 170.38C1025.46 116.99 1136.48 116.8 1234.47 141.016C1333.04 165.232 1421.7 210.422 1511.14 249.32C1523.39 254.659 1535.63 259.808 1548.08 264.956C1626.43 296.99 1708.67 321.778 1795.19 319.871C1822.8 319.299 1850.41 315.485 1877.63 309.193C1989.23 283.07 2093.06 212.329 2146.33 121.376" stroke="#5587FA" stroke-width="1.6" stroke-miterlimit="10"/>
<path d="M-384.914 1205.57C-279.729 965.695 0.634469 812.581 264.083 851.098C361.102 865.399 460.649 902.39 554.168 873.598C644.576 845.759 705.821 761.48 737.318 673.959C768.815 586.438 776.398 492.434 798.174 402.053C819.949 311.672 859.807 219.765 936.995 165.995C1020.01 108.029 1132.2 104.787 1230.58 130.91C1328.96 156.842 1417.81 208.516 1508.61 254.087C1599.21 299.659 1696.04 340.655 1797.92 341.99C1941.6 344.087 2082.95 259.998 2147.3 134.151" stroke="#518AFD" stroke-width="1.6" stroke-miterlimit="10"/>
</g>
</g>
</g>
</svg>
